<?xml version="1.0" encoding="utf-8"?>
<!-- Generator: Adobe Illustrator 23.0.0, SVG Export Plug-In . SVG Version: 6.00 Build 0)  -->
<svg version="1.1" id="Layer_1" xmlns="http://www.w3.org/2000/svg" xmlns:xlink="http://www.w3.org/1999/xlink" x="0px" y="0px"
	 viewBox="0 0 500 195" style="enable-background:new 0 0 500 195;" xml:space="preserve">
<style type="text/css">
	.st0{fill:#299AD1;}
	.st1{fill:#1B1C1C;}
	.st2{fill:#C22127;}
	.st3{fill:#C8273A;}
	.st4{fill:#FFFFFF;}
</style>
<path class="st0" d="M212.3,2.7c0,0-0.1,0-0.1,0C212.2,2.7,212.2,2.7,212.3,2.7"/>
<path class="st0" d="M219.8,0L219.8,0C219.8,0,219.8,0,219.8,0L219.8,0z"/>
<polygon class="st1" points="70.5,125.8 71.2,129.9 71.2,131.2 71.2,131.6 71.2,132.5 69.4,133.3 68.6,133.1 66.7,133.1 66.4,132.4 
	66.7,131.7 66.7,129.7 66.8,129.2 66.7,129.1 66.8,126.5 64.6,126.5 63,126.5 62.3,126.6 62.3,132.9 61.5,133 58.5,133 58.2,131.6 
	58.6,125.8 59.2,124.3 59.7,119.6 60.3,119.4 61.9,119.6 62.3,119.9 62.3,124.7 62.2,124.9 67,124.9 67.5,124.7 67.5,120.3 68,120 
	69.9,120 70.5,120.4 "/>
<path class="st1" d="M77.9,124.1c0.3-0.5,0.6-0.9,1.1-1.3c0.4-0.4,0.9-0.7,1.4-0.9c0.5-0.3,1.1-0.5,1.6-0.6l3.1-0.5
	c0,0.1,0.1,0.2,0.3,0.3c0.2,0,0.4,0,0.6,0c0.2,0,0.4,0,0.6,0c0.2,0,0.4,0,0.5,0c0.2,0,0.2,0,0.3,0.1c1.3,0.6,2.3,1.5,3,2.6
	c0.7,1.1,1,2.4,1,3.8v0.3c-0.4,0.7-0.9,1.3-1.5,1.8c-0.6,0.5-1.2,0.9-1.8,1.1l-3.5,1.2c-0.2,0.1-0.4,0.2-0.5,0.3
	c-0.2,0-0.3,0.1-0.4,0.1c-0.1,0-0.3,0-0.5,0h-0.6l-4.5-1.4l-0.4-0.5c-0.2-0.3-0.3-0.7-0.3-1c0-0.3,0-0.6,0-1c0-0.4,0-0.9,0-1.3
	c0-0.4,0.1-0.9,0.1-1.4C77.4,125.1,77.6,124.6,77.9,124.1 M84.6,123.6c-0.3,0-0.6,0.1-0.8,0.2c-0.2,0.1-0.5,0.3-0.7,0.4
	c-0.2,0.2-0.4,0.3-0.6,0.5c-0.2,0.2-0.4,0.3-0.5,0.4l-0.2,2.7l1,1h0.6l4.5-0.9l1.1-1.6c-0.1-0.5-0.3-0.9-0.6-1.2
	c-0.3-0.3-0.6-0.5-0.9-0.7c-0.3-0.2-0.7-0.3-1.1-0.4c-0.4-0.1-0.8-0.2-1.2-0.4C85,123.7,84.8,123.6,84.6,123.6"/>
<path class="st1" d="M110.4,122.9c0,0.5,0,1.1,0,1.6c0,0.5-0.1,1-0.1,1.5c0,0.5-0.1,1.1-0.3,1.6l-0.1,0.5l-0.7,2.7l-0.4,0.5
	c0,0.1-0.1,0.2-0.2,0.2c-0.1,0.1-0.1,0.2-0.2,0.3c-0.2,0.1-0.4,0.1-0.6,0.3c-0.2,0.1-0.3,0.2-0.5,0.4c-0.2,0.1-0.3,0.2-0.5,0.4
	c-0.2,0.1-0.3,0.2-0.5,0.3l-0.3,0.2c-0.3,0-0.6,0.1-0.8,0.1c-0.2,0-0.4,0-0.6,0c0,0,0,0,0,0c0,0,0,0-0.1,0c-0.1,0-0.2,0.1-0.5,0.2
	c-0.1,0-0.1,0-0.2,0c-0.1,0-0.1,0-0.1,0c-0.1,0-0.2,0-0.3,0c-0.1,0-0.2,0-0.3,0c0,0-0.1,0-0.1,0h-0.8c-0.4,0-0.8,0-1.3-0.1
	c-0.4,0-0.9-0.2-1.2-0.6c-0.4-0.3-0.8-0.5-1.1-0.8c-0.3-0.3-0.7-0.6-0.9-1c-0.3-0.4-0.5-0.8-0.7-1.2c-0.2-0.4-0.3-0.9-0.3-1.5
	l-0.3-1.8v-2.8c0-0.1-0.1-0.2-0.1-0.3V123v-2.3c0.3-0.1,0.5-0.2,0.6-0.3c0.4,0,0.7,0,1,0c0.3,0,0.5,0,0.8,0h1.8
	c0,0.1,0.1,0.1,0.1,0.2l0.2,0.1c0,0.4-0.1,0.8-0.1,1.2c0,0.3-0.1,0.7-0.1,1c0,0.3-0.1,0.6-0.1,1c0,0.3,0,0.7,0,1.1l0.1,0.3
	c0,0.1,0,0.2,0.1,0.3c0,0.4-0.1,0.7-0.1,1v0.9c0,0.1,0,0.3,0,0.5c0,0.2,0,0.5,0,0.7l0.1,1.2l0.5,0.5c0.1,0.1,0.2,0.2,0.3,0.2
	c0.1,0.1,0.2,0.2,0.3,0.2l0.6,0.2c0.1,0,0.2,0,0.3,0.1c0.1,0,0.2,0.1,0.4,0.1l0.9-0.1c0.1,0,0.3,0,0.5,0c0.2,0,0.4-0.1,0.7-0.1
	c0.2-0.1,0.4-0.2,0.6-0.4c0.2-0.2,0.3-0.4,0.3-0.6l0.1-0.3l0,0c0.1-0.3,0.1-0.5,0.1-0.9c0-0.3,0.1-0.6,0.1-0.9
	c0-0.3,0.1-0.6,0.1-0.9c0.1-0.3,0.1-0.5,0.1-0.7v-0.1v-0.1v-0.1c0-0.1,0-0.2,0-0.3c0-0.1,0.1-0.2,0.2-0.3c0-0.1-0.1-0.2-0.1-0.3
	c0-0.1-0.1-0.2-0.1-0.4v-3.5c0.2,0,0.3-0.1,0.3-0.1c0.1,0,0.2-0.1,0.4-0.2c0.2,0,0.3,0,0.4,0c0.1,0,0.2,0,0.4,0l0.8-0.1
	c0.2,0,0.5,0,0.8-0.1c0.1,0.1,0.1,0.1,0.1,0.2c0,0,0.1,0.1,0.2,0.1C110.4,121.8,110.4,122.4,110.4,122.9"/>
<path class="st1" d="M127,129.8c0,0.2,0.1,0.5,0.1,0.7c0,0.3-0.1,0.6-0.3,0.8c-0.2,0.2-0.4,0.4-0.7,0.6c-0.3,0.2-0.6,0.3-0.9,0.4
	c-0.3,0.1-0.6,0.2-0.8,0.4c-0.2,0.1-0.3,0.2-0.5,0.2s-0.2,0.1-0.3,0.1c-0.1,0-0.1,0-0.1,0c0,0-0.1,0-0.1,0c0,0-0.1,0-0.2,0
	c-0.1,0-0.2,0.1-0.4,0.1c-0.1,0-0.3,0.1-0.4,0.1c-0.2,0-0.3,0-0.5,0c-0.3,0-0.6,0-0.9-0.1c-0.3-0.1-0.7-0.1-1.1-0.1
	c-0.2,0-0.3,0-0.5,0c-0.2,0-0.3,0.1-0.5,0.1c-0.2,0-0.5,0.1-0.6,0.1c-0.2,0-0.3,0-0.5,0.1c-0.2,0-0.3,0-0.5,0c-0.2,0-0.4,0-0.6,0
	c-0.2-0.1-0.3-0.1-0.3-0.1c-0.1,0-0.1-0.1-0.2-0.1c-0.1,0-0.1-0.1-0.1-0.1c0,0,0,0,0,0c0,0,0,0,0-0.1c0,0,0-0.1,0-0.1
	c0,0,0.1-0.1,0.1-0.1h-0.1c0,0-0.1,0-0.1-0.1c0-0.1-0.1-0.2-0.1-0.3c0-0.1-0.1-0.3-0.1-0.4c0-0.1-0.1-0.3-0.1-0.4c0,0,0.1,0,0.3,0
	c0.2,0,0.3,0.1,0.5,0.1c0.1,0,0.2,0,0.3-0.1c0.3,0,0.6,0.1,0.8,0.1c0.2,0,0.5,0,0.6,0c0.4,0,0.8,0,1.1-0.1c0.3-0.1,0.8-0.2,1.3-0.3
	c0,0,0.1,0,0.3,0c0.2,0,0.4-0.1,0.6-0.1c0.2-0.1,0.4-0.2,0.6-0.3c0.2-0.2,0.3-0.4,0.3-0.7c0-0.1,0-0.2-0.1-0.3
	c-0.1-0.1-0.2-0.2-0.2-0.3c-0.1-0.1-0.1-0.2-0.2-0.2c-0.1-0.1-0.1-0.2-0.1-0.3l-0.8-0.3l-1.8-0.7c-0.2,0-0.4-0.1-0.6-0.2
	c-0.2-0.1-0.3-0.2-0.5-0.4c-0.2-0.1-0.3-0.3-0.5-0.4c-0.2-0.1-0.4-0.2-0.7-0.3l-0.3-0.2c-0.2-0.1-0.3-0.3-0.4-0.5
	c-0.1-0.2-0.2-0.4-0.2-0.7c0,0,0.1-0.1,0.1-0.2c0-0.1,0-0.2,0-0.3s0-0.2,0-0.2c0,0,0,0,0-0.1c0-0.2,0.1-0.3,0.2-0.5
	c0.1-0.2,0.2-0.3,0.2-0.6c0.2-0.1,0.3-0.2,0.4-0.3c0.1-0.1,0.2-0.2,0.2-0.3c0.2-0.3,0.5-0.5,0.9-0.7c0.4-0.2,0.8-0.4,1.2-0.5
	l1.4-0.6c0.3-0.1,0.6-0.1,0.9-0.2c0.2,0,0.6-0.1,1-0.2c0.1,0,0.2,0.1,0.3,0.1c0.1,0,0.2,0,0.3,0c0.3,0,0.6,0,0.8,0
	c0.2,0,0.5,0,0.8-0.1c0.2,0.1,0.3,0.2,0.4,0.2c0.1,0,0.2,0.1,0.4,0.2v0.3c0,0.1,0,0.1,0,0.2c0,0.1,0,0.1,0,0.2s0,0.2,0,0.3
	c-0.1,0.2-0.3,0.2-0.6,0.2h-0.5l-0.5,0.2c-0.2,0-0.5,0.1-0.8,0.2c-0.3,0.1-0.6,0.2-0.7,0.2c-0.1,0.1-0.3,0.1-0.6,0.2
	c-0.2,0.1-0.5,0.1-0.6,0.1h-0.1c-0.4,0.2-0.7,0.4-0.8,0.6c-0.1,0.2-0.2,0.4-0.2,0.8c0,0.4,0,0.6,0.1,0.7c0.1,0.1,0.2,0.2,0.3,0.2
	l1.3,0.6c0.4,0.2,0.8,0.4,1.2,0.6c0.5,0.2,0.9,0.4,1.4,0.6c0,0,0.1,0.1,0.2,0.1l0.9,0.4c0.1,0.1,0.2,0.1,0.3,0.2
	c0.1,0.1,0.3,0.1,0.5,0.2c0,0.1,0,0.2,0.1,0.3c0.1,0.1,0.1,0.2,0.2,0.2c0.1,0.1,0.1,0.2,0.2,0.2c0.1,0.1,0.1,0.2,0.1,0.3
	C126.9,129.3,126.9,129.6,127,129.8"/>
<path class="st1" d="M144.8,130.8c0,0.1,0,0.1,0.1,0.2v0.2c0,0,0,0.1-0.1,0.1c-0.1,0.1-0.1,0.2-0.2,0.3l-1.3,0.1l-2.7,0.4l-1.2,0.3
	h-6v-1.5l-0.2-0.3l0.3-1v-3.9l-0.2-0.3v-4.3l0.4-0.4l0.2,0h2.7l0.4,0.3l3-0.3l2.4-0.3l1.2,0.3v1.2l-0.5,0.2l-6.4,0.4l-0.2,0.1
	l0.5,2.4l0.3,0.6h0.8l2.4-0.2l0.6,0h2l0.2,0.7l-0.4,0.4l-1.2,0.2h-0.9l-3.3,0.5v0.8l0.4,2.4l0.3,0h6.2l0.6,0.1
	C144.8,130.7,144.8,130.8,144.8,130.8"/>
<path class="st1" d="M111.3,192.9c-0.2,0.1-0.3,0.1-0.7,0c-1.3-0.3-3.1-1-4-2.4c-0.9-1.4-1.1-3.5,0.6-6.5c0.1-0.1,0.4-0.5,0.6-0.7
	c2.6-0.9,5-2,7.5-3l3.7-1.7c1.2-0.5,2.4-1.1,3.6-1.8c4.9-2.4,9.7-5.2,14.2-8.2c2.3-1.5,4.5-3.1,6.7-4.7c2.1-1.7,4.3-3.4,6.3-5.2
	c4.1-3.6,8-7.4,11.5-11.6c3.5-4.1,6.7-8.5,9.5-13.1c2.8-4.6,5.2-9.5,7.1-14.5c1.9-5,3.3-10.2,4.1-15.5c1.7-10.5,1.1-21.4-1.9-31.6
	c-1.5-5.1-3.5-10.2-6-14.9c-2.5-4.8-5.4-9.3-8.7-13.5c-6.6-8.4-14.9-15.6-24.2-21c-9.3-5.4-19.6-9-30.2-10.6
	c-10.6-1.6-21.5-1.1-31.9,1.3c-10.4,2.5-20.4,7-29.2,13.1c-8.8,6.2-16.4,14-22.6,22.9c-6.1,8.9-10.8,18.9-13.4,29.3
	C12.9,84.4,12,89.7,11.9,95c0,1.3-0.1,2.6,0,3.9c0,0.6,0,1.3,0.1,2l0.2,1.9c0,0.7,0.2,1.3,0.3,1.9c0.1,0.6,0.2,1.3,0.3,1.9l0.4,1.9
	c0.1,0.6,0.3,1.3,0.5,2c2.8,10.6,6.9,20.8,12.8,29.7c2.9,4.5,6.3,8.6,10.2,12.2c1.9,1.9,3.9,3.5,6,5.2c2.1,1.6,4.3,3.1,6.6,4.4
	c0.6,0.3,1.1,0.7,1.7,1l1.3,0.7l0.5,0.3c0.3,0.2,0.7,0.4,1,0.5l2.1,1c0.7,0.4,1.4,0.6,2.1,1c0.7,0.3,1.4,0.7,2.1,0.9
	c0,0,0.8,0.4,2.2,1.1c1.4,0.6,3.4,1.6,5.7,2.5c2.3,1,5,2,7.7,3c2.7,1,5.5,1.9,8.1,2.8c4.3,1.3,7.2,2.3,8.8,3c1.6,0.8,2,1.3,1.5,1.8
	c-1.1,0.8-5.9,1.2-11.7,0.7c0.6,0.2-6.3-0.5-13.4-2c-3.5-0.7-7-1.7-9.7-2.5c-1.3-0.4-2.4-0.8-3.2-1.1c-0.8-0.3-1.2-0.4-1.2-0.4
	c-1.6-0.7-3.1-1.4-4.6-2.2c-0.8-0.4-1.5-0.7-2.3-1.2l-0.6-0.3l-1.2-0.6c-0.7-0.3-1.3-0.7-1.9-1.1l-1.9-1.1l-1.9-1.2
	c-1.3-0.8-2.4-1.7-3.7-2.6c-9.6-7.1-17.5-16.5-23-26.9c-2.8-5.2-5.1-10.6-7.1-16.1c-0.5-1.4-1-2.8-1.4-4.2c-0.4-1.4-0.9-2.8-1.2-4.2
	l-0.6-2.1l-0.3-1.1l-0.3-1.1L2.7,108l-0.4-2.3l-0.2-1.1l-0.1-1.1l-0.2-2.3l-0.1-2.3c0-0.8-0.1-1.5,0-2.3l0-2.3
	c0-0.8,0.1-1.5,0.1-2.2c0.1-1.5,0.2-3,0.4-4.5C3,81.7,4.4,75.9,6.3,70.3c3.7-11.2,9.4-21.7,16.6-31c7.2-9.3,16-17.4,26.1-23.6
	c10-6.2,21.2-10.5,32.8-12.7c11.6-2.1,23.6-2.1,35.2,0.2c11.6,2.3,22.7,6.7,32.7,13c10,6.3,18.8,14.5,25.8,24
	c3.5,4.8,6.6,9.9,9.1,15.2c2.6,5.3,4.6,10.9,6.2,16.7c1.5,5.8,2.4,11.7,2.6,17.7c0.2,6-0.3,12-1.4,17.8
	c-2.2,11.7-6.7,22.9-12.9,32.8c-6.2,10-14,18.9-22.8,26.5c-4.4,3.8-9,7.3-13.9,10.5c-4.8,3.2-9.8,6.1-15,8.7
	c-1.3,0.7-2.6,1.3-3.9,1.9l-3.9,1.8C116.7,190.8,114,192,111.3,192.9"/>
<path class="st1" d="M81.3,147.8h-0.4c-0.1,0-0.2,0-0.3,0c-0.1,0-0.2,0-0.3-0.1c-0.1,0-0.1-0.1-0.1-0.1c0-0.2,0.1-0.3,0.3-0.5
	c0.2-0.2,0.3-0.3,0.5-0.4l0.2,0l0.4-0.1c0.1,0,0.1,0,0.2,0H82c0.2,0,0.3,0,0.5,0c0.2,0,0.3,0,0.5,0c0.1,0,0.2,0,0.3,0l1.8-0.4l1-0.1
	l0.6-0.3l0.2,0c0.2,0.2,0.4,0.5,0.5,0.7c0.1,0.3,0.2,0.6,0.2,0.9c0,0.2,0,0.3-0.1,0.5c0,0.2-0.1,0.4-0.1,0.6c0,0.3,0,0.5,0.1,0.7
	c0.1,0.2,0.2,0.4,0.2,0.5c0.1,0.2,0.1,0.3,0.2,0.5c0.1,0.2,0.1,0.4,0.1,0.6c0,0.1,0,0.2,0,0.2l-0.1,0.4v0.8c-0.1,0-0.1,0.1-0.2,0.1
	c0,0.1-0.1,0.1-0.1,0.2c0,0.1-0.1,0.1-0.1,0.1c0,0-0.1,0.1-0.1,0.1h0l-0.6-0.1c-0.3,0-0.6,0-0.8,0.1c-0.3,0.1-0.5,0.1-0.7,0.1
	c-0.2,0-0.3-0.2-0.3-0.5c0-0.2,0-0.4,0.1-0.7c0.1-0.3,0.2-0.7,0.4-1.3c0-0.1,0-0.1,0.1-0.2c0,0,0.1-0.1,0.1-0.1c0,0,0.1-0.1,0.1-0.1
	c0,0,0-0.1,0-0.2l0-3l-0.2,0.2c-0.4,0-0.7,0.1-1,0.1c-0.3,0-0.6,0.1-0.9,0.3c-0.1,0.1-0.2,0.1-0.3,0.1c0,0-0.1,0-0.2,0
	c-0.1,0-0.1,0-0.2,0l-0.2,0.1C82.3,147.7,81.8,147.8,81.3,147.8 M84.3,154.5c0.3,0,0.6,0,0.9,0c0.3,0,0.6,0,1,0c0.3,0,0.5,0,0.7,0
	l0.7-0.1c0.1,0,0.1,0.1,0.2,0.2c0.1,0.1,0.2,0.3,0.2,0.3v0.2l-0.5,0.1l-0.5,0.1l-0.4-0.1l-3.2,0.3l-0.1,0.1h-0.1
	c-0.1,0-0.2,0-0.2,0.1c0,0-0.1,0.1-0.2,0.1l-1,0.2h-0.6l-0.1-0.2l0.1-0.6c0.1,0,0.2-0.1,0.3-0.1c0.2-0.1,0.3-0.1,0.5-0.2
	c0.2-0.1,0.3-0.1,0.4-0.1c0.1,0,0.2-0.1,0.3-0.1c0-0.3-0.1-0.6-0.1-1c0-0.4,0-0.7,0-1.1c0-0.1,0-0.3,0-0.5c0-0.2,0-0.4,0-0.5
	c0-0.2,0-0.3,0.1-0.5c0-0.1,0.1-0.2,0.1-0.2c0,0,0.1,0,0.1,0c0,0,0.1,0,0.1,0c0.1,0,0.1,0,0.1,0l0.6,0.1l0.4,0.3c0,0.1,0,0.1,0,0.2
	c0,0.2,0,0.3-0.1,0.6l-0.5,1l0.1,0.5c0,0.1,0.1,0.2,0.1,0.3c0,0.1,0,0.2,0.1,0.2l0,0.5C83.8,154.5,84,154.5,84.3,154.5"/>
<path class="st1" d="M100,144.5l0.2,0.7l0.1,0.6c-0.1,0.1-0.2,0.2-0.2,0.3c0,0.1,0,0.1-0.1,0.2l-0.2,0.3c0,0.3-0.1,0.5-0.1,0.7v0.5
	v0.5c0,0.2,0,0.4-0.1,0.6c0,0.1,0,0.2-0.1,0.3c0,0.1-0.1,0.2-0.1,0.3c0,0.1-0.1,0.2-0.1,0.4c0,0.1-0.1,0.2-0.1,0.3l-0.2,0.1h-0.4
	l-1.1-0.2c-0.1,0-0.2-0.1-0.2-0.2c-0.1-0.1-0.1-0.2-0.1-0.4c0-0.1-0.1-0.3-0.1-0.4s0-0.3,0-0.4l-0.1-1.3l-0.2-0.2
	c-0.1-0.1-0.1-0.2-0.1-0.3c0-0.1,0-0.1,0-0.2c0-0.1,0-0.1,0-0.2c0-0.1-0.1-0.1-0.2-0.1h-0.1l-2.2,0.2l-1,0.2l-0.3-0.1l-0.1-0.5
	l0.3-0.3c0.1-0.1,0.3-0.3,0.4-0.4c0.2-0.1,0.4-0.2,0.7-0.2h0.2c0.2,0,0.5-0.1,0.7-0.2c0.3-0.1,0.6-0.2,0.8-0.3
	c0.3-0.1,0.6-0.2,0.8-0.2c0.3-0.1,0.5-0.1,0.7-0.1L100,144.5z M100.7,152.1c0.1-0.1,0.2-0.1,0.4-0.1c0.2,0,0.4,0,0.4,0.1
	c0.2,0.1,0.4,0.2,0.6,0.3c0.1,0.1,0.2,0.1,0.3,0.2c0.1,0.1,0.1,0.1,0.1,0.2c0,0.1,0.1,0.1,0.2,0.2c0,0.2-0.1,0.3-0.3,0.5
	c-0.1,0.1-0.2,0.2-0.3,0.3c-0.1,0.1-0.1,0.1-0.2,0.1c0,0-0.1,0-0.1,0c0,0,0,0-0.1,0.1l-0.2,0.9l0.3,0.1l0.3,0.2
	c0.1,0.1,0.2,0.1,0.3,0.1c0.1,0,0.1,0.1,0.2,0.1c0,0,0.1,0.1,0.2,0.1c0.1,0.1,0.2,0.1,0.4,0.2c0.2,0.1,0.3,0.2,0.5,0.3
	c0.2,0.1,0.3,0.2,0.5,0.3c0,0-0.1,0.1-0.1,0.2c0,0.1-0.1,0.2-0.1,0.2c0,0.1-0.1,0.1-0.1,0.2c0,0.1-0.1,0.1-0.2,0.1
	c-0.1,0-0.1-0.1-0.2-0.1c-0.1,0-0.2-0.1-0.4-0.1l-0.7-0.1l-0.5-0.3l-0.6-0.2c-0.2-0.1-0.3-0.1-0.5-0.2s-0.4-0.1-0.6-0.1
	c0,0-0.1,0-0.1,0c0,0-0.1,0-0.1,0l-0.6,0.5l-1,1.3l-0.2,0.2c0,0.1-0.1,0.1-0.1,0.2c0,0-0.1,0.1-0.1,0.2l-0.3,0.2h-0.1l-0.6-0.2
	c-0.3-0.1-0.4-0.2-0.5-0.2c-0.1,0-0.1-0.1-0.1-0.1c0.1,0,0.1,0,0.1,0.1c0,0,0,0,0,0h-0.1l-0.3-0.7l0.3-0.5l1.3-1.3l0.8-0.3v-0.1
	l0.7-0.7c0-0.1,0-0.2,0.1-0.2c0-0.1,0.1-0.1,0.2-0.2c0.1,0,0.1-0.1,0.2-0.1c0.1,0,0.1-0.1,0.1-0.2l0.6-1L100.7,152.1z M101.9,143.6
	c0.1-0.1,0.2-0.2,0.3-0.2l1.1,0.7l-0.2,2.6c-0.1,0.2-0.1,0.3-0.1,0.3c0,0,0,0.1-0.1,0.1l0.1,0.8c0,0.1,0,0.1,0,0.2
	c0,0.1,0,0.1,0,0.2l0,0.5c0,0.1,0,0.2,0,0.3c0,0.1,0,0.3,0,0.5c0,0.2,0,0.3,0.1,0.5c0,0.1,0.1,0.3,0.1,0.3l-0.4,0.7l-0.9-0.5
	l-0.1-0.1v-3.6l0.1-0.5l-0.1-0.3l-0.1-2.2C101.8,143.7,101.8,143.6,101.9,143.6"/>
<path class="st1" d="M113.6,146.5l-0.2,0.5l-0.1,0.7c0.2,0.2,0.4,0.4,0.6,0.6c0.3,0.2,0.5,0.4,0.7,0.5l0.3,0.4l0.2,0.1l0.6,0.8v0.1
	l-0.2,0.2h-0.1l-0.6,0.2c-0.1,0-0.1,0-0.2,0c-0.1,0-0.2,0-0.3-0.1c-0.1-0.1-0.2-0.2-0.2-0.4l-0.7-0.5c-0.1-0.1-0.2-0.2-0.3-0.3
	c-0.1-0.1-0.2-0.1-0.4-0.1l-0.3-0.3c-0.2,0-0.3,0.1-0.4,0.1c-0.1,0.1-0.1,0.2-0.1,0.3l-0.6,0.9c-0.1,0.1-0.2,0.1-0.2,0.1
	c0,0-0.1,0-0.1,0.1c0,0,0,0.1-0.1,0.1c0,0-0.1,0.1-0.1,0.3l-0.6,0.8c-0.1,0-0.2,0.1-0.3,0.1c-0.1,0-0.1,0.1-0.2,0.2h-0.1
	c0,0-0.1,0-0.3-0.1c-0.2,0-0.4-0.1-0.5-0.2c-0.2-0.1-0.4-0.2-0.5-0.4c-0.2-0.2-0.2-0.4-0.2-0.6c0,0,0.1-0.1,0.2-0.2
	c0.1-0.1,0.3-0.3,0.4-0.4c0.2-0.2,0.3-0.3,0.5-0.5c0.2-0.2,0.3-0.4,0.4-0.5l0.3-0.5l0.5-0.5l0.8-1v-0.1l0.3-0.3l0-0.2l0.3-0.4
	c-0.1,0-0.2,0-0.4,0c-0.1,0-0.2,0-0.3,0c-0.1,0-0.3,0-0.4,0c-0.1,0-0.2,0-0.3,0.1c-0.1,0-0.2,0.1-0.2,0.1c-0.1,0-0.2,0-0.3,0
	l-0.1,0.1l-1.3-0.1c-0.1-0.1-0.1-0.2-0.1-0.3c0-0.1,0-0.2,0.1-0.3c0.1-0.1,0.1-0.2,0.1-0.5l0.4-0.3c0.1-0.1,0.3-0.1,0.5-0.1
	c0.3,0,0.4,0,0.6,0l0.9,0.1h0.6l0.3-0.1c0.4,0,0.8-0.1,1.2-0.1c0.4,0,0.9,0,1.3,0h0.4c0.2,0,0.2,0.1,0.2,0.3c0,0.1,0,0.3-0.1,0.4
	c-0.1,0.1-0.1,0.2-0.1,0.2h0c-0.1,0.1-0.3,0.1-0.6,0.2c-0.3,0.1-0.5,0.1-0.8,0.1C113.5,146,113.5,146.2,113.6,146.5 M117.1,152.3
	l0.2,0c0.1,0.1,0.2,0.2,0.3,0.4c0.1,0.2,0.1,0.4,0.2,0.6c0.1,0.2,0.1,0.5,0.1,0.7c0,0.2,0,0.4,0,0.6v0.2c0,0.1,0,0.2,0,0.3
	c0,0.1,0.1,0.2,0.1,0.3c0,0.1,0.1,0.2,0.2,0.3c0.1,0.1,0.1,0.1,0.2,0.2v0.3c0,0.3,0,0.5,0,0.7c0,0.2-0.1,0.3-0.1,0.4
	c-0.1,0.1-0.1,0.2-0.2,0.2h0l-0.4,0c-0.4,0-0.7,0-1,0.1c-0.3,0-0.5,0.1-0.8,0.1c-0.3,0-0.5,0.1-0.8,0.1c-0.3,0-0.5,0.1-0.9,0.1H114
	c-0.1,0-0.2,0-0.2,0l-1.3,0c-0.1-0.1-0.2-0.1-0.3-0.2c-0.1,0-0.2-0.1-0.3-0.1l-0.1-0.2l0.3-2.4c0,0-0.1-0.1-0.1-0.1c0,0,0-0.1,0-0.1
	v-0.2c0-0.1,0-0.2,0-0.3c0-0.1,0.1-0.2,0.1-0.3c0-0.1,0.1-0.2,0.2-0.2l0.6-0.9l0.4-0.2h0.1c0.1,0,0.1,0,0.2,0c0.1,0,0.1,0,0.2,0
	c0.1,0,0.2,0,0.2,0c0,0,0.1,0.1,0.1,0.2c0,0.1,0.1,0.2,0.1,0.4c0,0.1,0.1,0.3,0.1,0.4c0,0.1,0.1,0.2,0.1,0.2l1.5-0.1l0.3-0.1
	c-0.1-0.2-0.1-0.4-0.2-0.6c0-0.1-0.1-0.3-0.1-0.5c0,0,0-0.1,0-0.1c0,0,0-0.1,0-0.2l0.7-0.6L117.1,152.3z M116,154.7
	c-0.1,0-0.1,0-0.2,0c-0.1,0-0.1,0-0.2,0c-0.1,0-0.1,0-0.2,0c-0.2,0-0.3,0-0.4,0.1c-0.1,0.1-0.3,0.1-0.6,0.1l-0.1,0.1v0.1v1.6
	l0.2,0.2l1.8-0.2c0-0.1,0-0.1,0.1-0.2c0.1,0,0.1-0.1,0.1-0.2c0-0.2-0.1-0.3-0.1-0.4c0-0.1-0.1-0.2-0.1-0.3c0-0.1-0.1-0.2-0.1-0.3
	c0-0.1,0-0.3-0.1-0.4l-0.1-0.1C116.1,154.7,116.1,154.7,116,154.7 M116.6,143.9c0.1-0.1,0.2-0.2,0.3-0.2l1.1,0.7l-0.2,2.6
	c-0.1,0.2-0.1,0.3-0.1,0.3c0,0,0,0.1-0.1,0.1l0.1,0.8c0,0,0,0.1,0,0.2c0,0.1,0,0.2,0,0.2l0.1,0.5c0,0.1,0,0.2,0,0.3
	c0,0.1,0,0.3,0,0.5c0,0.2,0,0.3,0.1,0.5c0,0.2,0,0.3,0.1,0.3l-0.4,0.7l-0.9-0.4l-0.1-0.1v-3.6l0.1-0.5l-0.1-0.3l-0.1-2.2
	C116.4,144.1,116.5,144,116.6,143.9"/>
<path class="st1" d="M91.3,99.7c0.2,0.1,0.2,0.1,0.4,0.3c0.6,0.9,1.4,2.2,1.9,3.8c0.4,1.5,0.3,3.9-3.4,5.5c-0.1,0.1-0.8,0.2-1,0.2
	c-3.4-0.9-6.6-2.3-9.5-5.3c-1.4-1.5-2.7-3.7-3.2-6.2c-0.2-1.2-0.3-2.5-0.1-3.7c0.1-1.2,0.6-2.7,1.2-3.8c0.5-0.9,1-1.5,1.5-2.2
	c3.2-3.4,6.4-4.7,9.7-6.1c0,0,1-0.3,2.8-0.7c0.9-0.2,2-0.4,3.4-0.4c0.7,0,1.5,0,2.3,0c0.8,0.1,1.6,0.3,2.4,0.4
	c0.9,0.3,1.8,0.5,2.7,1c1,0.6,1.9,1.2,2.8,2.2c0.9,0.9,1.4,2.1,1.8,3.2c0.3,1.1,0.5,2.2,0.4,3.2c0,1-0.1,1.9-0.3,2.8
	c-0.1,0.8-0.5,1.9-0.8,2.9c-0.8,1.8-1.9,3.1-2.9,4.2c-3.7,3.7-7.2,4.4-9,4.3c-1.9-0.4-2.2-1-1.7-1.4c0.5-0.5,1.5-0.9,2.8-1.9
	c1.2-1.1,2.8-2.7,3.9-4.7c-0.2,0.2,0.6-1,1-2.5c0-0.4,0.1-0.6,0.1-1.1c0-0.5,0-1.2-0.1-1.6c-0.1-1.1-0.5-1.5-0.8-1.5
	c-0.3-0.1-1.1-0.4-2.3-0.3c-0.9,0-2,0.3-3,0.6c-2,0.6-3.3,1.4-3.3,1.4c-2,0.8-3.9,2-4.7,3c-0.1,0.2-0.3,0.3-0.3,0.4
	c-0.1,0.1,0-0.1,0,0.1c-0.1,0.2,0,0.3,0,0.5c0,0.2,0.2,0.6,0.6,1.1C87.6,98.2,89.5,99.3,91.3,99.7"/>
<path class="st1" d="M49.9,96c-0.1,0-0.2,0-0.3,0c-0.6-0.2-1.5-0.7-2-1.5c-0.5-0.8-0.6-1.9,0.6-3.5c0-0.1,0.3-0.3,0.4-0.4
	c3.2-0.8,6.4-1.1,9.4-1.3c1.9-0.1,3.8-0.2,5.7-0.4l2.4-0.3c0.1,0,0.1,0,0.4-0.1l0.6-0.1l1.1-0.2c0.8-0.2,1.8-0.6,2.7-0.9
	c0,0,0.3-0.1,0.7-0.2c0.2-0.1,0.5-0.2,0.8-0.3c0.1,0,0.2-0.1,0.3-0.1l0.1,0c0,0,0,0.1,0,0.1c0,0.2,0,0.4,0,0.6
	c-0.1,1.6-0.3,3.8-0.5,6.5c-0.1,0.6-0.1,1.3-0.2,1.8c-0.1,0.4-0.2,0.8-0.3,1.2c-0.2,0.8-0.4,1.6-0.6,2.5c-0.4,1.7-1.1,3.2-1.6,4.7
	c-1.9,4.8-2.9,6.1-3.3,5.4c-0.4-0.7,0-3.3,0.4-6.4c-0.2,0.3,0.6-3.4,0.7-7c0.1-1.2,0-1.2,0-1.5c0-0.2-0.1-0.4-0.1-0.5
	c-0.1-0.1-0.2,0.1-0.1,0.1l-0.8,0.1c-0.7,0.1-1.5,0.2-2.2,0.2c-2,0.2-3.9,0.3-5.8,0.4C55.3,95.1,52.5,95.4,49.9,96"/>
<path class="st1" d="M57.3,65.9c0.3-0.1,0.4-0.1,0.9,0c1.6,0.4,3.5,1.4,4.3,3.2c0.6,1.8,0.2,4-1.5,6.9c-0.1,0.1-0.4,0.5-0.6,0.6
	c-4.8,1.5-9.5,4.3-13.2,8.1c-2.6,2.5-4.8,5.5-6.7,8.8c-0.7,1.3-1.4,2.8-2,4.1c-0.6,1.3-0.9,2.5-1.1,3.6c0,0-0.1,0.2-0.1,0.4
	c0,0.1-0.1,0.3-0.1,0.5c0,0.2,0,0.4-0.1,0.6c0,0.4,0,0.8,0,1.1c0,0.3,0.2,0.7,0.6,1.1c0.9,0.9,3.3,1.7,6,1.7c2.7,0,5.5-0.6,8-1.5
	c4.1-1.7,6.3-3.8,7.6-5.1c1.3-1.3,1.9-1.7,2.2-1c0.3,0.7,0.2,2.6-1,4.9c-1.2,2.3-3.4,4.9-6.3,6.9c0.3-0.1-1.2,1.1-4.1,2.3
	c-2.9,1.2-7,2.5-12,1.9c-2.4-0.3-5.2-1.3-7.5-3.4c-2.3-2-3.5-5.1-3.8-7.3c-0.3-2.3-0.2-4,0-5.2c0.2-1.1,0.3-1.8,0.3-1.8
	c0.3-0.9,0.5-1.8,0.8-2.7c0.3-0.8,0.7-1.7,1-2.5c0.7-1.5,1.4-3,2.2-4.4c2.3-4.1,5.2-8,8.6-11.3C44.6,71.7,50.6,68,57.3,65.9"/>
<path class="st1" d="M131.4,91.8c-0.1,0-0.1,0-0.3,0c-0.6-0.2-1.3-0.7-1.8-1.4c-0.4-0.7-0.6-1.8,0.5-3.3c0-0.1,0.2-0.3,0.4-0.3
	c3-0.8,5.9-1,8.7-1.2c1.8-0.1,3.5-0.2,5.2-0.4l2.2-0.2c0.1,0,0.1,0,0.3,0l0.5-0.1l1-0.2c0.7-0.2,1.6-0.6,2.5-0.9
	c0,0,0.2-0.1,0.7-0.2c0.2-0.1,0.5-0.2,0.8-0.3c0.1,0,0.2,0,0.2-0.1l0.1,0c0,0,0,0.1,0,0.1c0,0.2,0,0.4,0,0.6c-0.1,1.5-0.3,3.5-0.5,6
	c-0.1,0.6-0.1,1.2-0.2,1.7c-0.1,0.4-0.2,0.7-0.3,1.1c-0.2,0.7-0.4,1.5-0.6,2.3c-0.3,1.5-1,3-1.4,4.3c-1.7,4.5-2.7,5.6-3,5
	c-0.4-0.6,0-3,0.4-5.9c-0.1,0.3,0.5-3.1,0.7-6.5c0.1-1.1,0-1.1,0-1.3c0-0.2-0.1-0.4-0.1-0.5c-0.1-0.1-0.1,0.1-0.1,0.1l-0.8,0.1
	c-0.7,0.1-1.4,0.1-2.1,0.2c-1.8,0.2-3.6,0.3-5.4,0.4C136.4,91,133.8,91.2,131.4,91.8"/>
<path class="st1" d="M137.8,63.7c0.3-0.1,0.4-0.1,0.9,0c1.6,0.4,3.5,1.4,4.3,3.2c0.6,1.8,0.2,4-1.4,6.9c-0.1,0.1-0.4,0.5-0.6,0.7
	c-4.8,1.5-9.2,4.5-12.8,8.3l-1.6,1.9c-0.5,0.7-1,1.3-1.5,2c-0.5,0.6-0.8,1.3-1.2,1.9c-0.4,0.6-0.8,1.3-1.1,2c-0.7,1.4-1.4,2.8-1.8,4
	c0,0-0.1,0.2-0.2,0.5c-0.1,0.3-0.4,0.8-0.5,1.4c-0.2,0.6-0.3,1.2-0.4,1.7c0,0.5,0,0.9,0.1,1.2c0.1,0.3,0.5,0.8,1.3,1.3
	c0.8,0.4,1.9,0.8,3.2,0.9c2.5,0.3,5.4-0.1,7.9-0.9c4.2-1.5,6.4-3.6,7.7-4.8c1.3-1.3,1.9-1.7,2.3-1c0.3,0.7,0.2,2.6-1.1,4.9
	c-1.2,2.3-3.5,4.8-6.6,6.7c0.3-0.1-1.3,1-4.2,2.1c-1.5,0.5-3.3,1-5.4,1.2c-2.1,0.2-4.5,0.2-7.2-0.7c-2.6-0.8-5.5-3.1-6.8-6.1
	c-1.3-3-1.2-5.7-1-7.7c0.3-2,0.7-3.5,1-4.5c0.3-1,0.5-1.6,0.5-1.6c0.7-1.6,1.5-3,2.2-4.5c0.9-1.4,1.7-2.9,2.6-4.3l1.9-2.6l2.2-2.5
	C125.1,69.9,131,65.9,137.8,63.7"/>
<path class="st1" d="M163,108.7c0,0.1,0,0.1-0.2,0.1c-0.5,0.2-1.4,0.4-2.5,0.4c-1.1,0-2.5-0.2-3.9-1.1c-0.1,0-0.2-0.2-0.3-0.2
	c0-0.1,0.2-1.5,0.5-3.7c0.3-2.1,0.7-4.8,1-7.5c0.3-2.8,0.5-5.5,0.7-7.6c0.2-2.1,0.4-3.5,0.4-3.5s0.3-0.9,0.8-2.1
	c0.5-1.2,1.1-2.6,1.8-3.8c1.1-2.1,2.2-2.5,2.7-2.1c0.6,0.4,0.8,1.5,1.1,2.8c0.1-0.1,0.2,1.4,0.3,3.1c0.1,1.6,0.2,3.3,0.2,3.3
	s-0.5,5.4-1.1,10.8c-0.3,2.8-0.7,5.6-1,7.6C163.2,107.3,163,108.7,163,108.7"/>
<path class="st2" d="M163.3,73.7c-3.1,0.6-4.6-2-4.4-3.6c0.6-3.6,0.4-6.3-0.1-8.3C157.9,57.1,172,71.9,163.3,73.7"/>
<path class="st1" d="M68,46.7c0.4,0.2,0.7,0.3,1.1,0.5c0.4,0.2,0.7,0.5,0.9,0.9c0,0.4-0.1,0.7-0.2,1c-0.1,0.3-0.3,0.5-0.5,0.7
	c-0.2,0.2-0.4,0.4-0.6,0.6c-0.2,0.2-0.4,0.4-0.5,0.6l-0.6,0.3c-0.1,0.1-0.2,0.1-0.4,0.1c-0.2,0-0.4,0.1-0.6,0.1
	c-0.2,0-0.4,0.1-0.6,0.2c-0.2,0.1-0.3,0.1-0.3,0.2l-0.9-0.4c-0.6-0.2-1-0.5-1.2-0.8c-0.2-0.4-0.3-0.9-0.3-1.6c0-0.4,0-0.8,0-1.1
	c0-0.3,0.1-0.6,0.2-0.9l-1.1,0.2l-0.7-0.5c-0.1-0.1-0.1-0.1-0.1-0.2c0,0,0-0.1,0-0.2c0-0.2,0-0.3,0-0.4c0-0.1,0.1-0.2,0.3-0.3
	l0.2-0.2l0.2,0.1c0,0,0.1,0,0.2,0c0.2,0,0.4,0,0.6-0.1c0.2-0.1,0.4-0.1,0.6-0.1l1.6,0.1l0.7-0.2l0.4-0.3c0.3,0,0.5,0,0.8-0.1
	c0.3,0,0.6-0.1,0.9-0.2c0.3-0.1,0.6-0.1,1-0.2c0.3-0.1,0.6-0.1,0.9-0.1c0.2,0,0.3,0.1,0.4,0.3c0.1,0.2,0.1,0.3,0.1,0.4
	c0,0.1,0,0.2,0,0.4c0,0.2-0.1,0.3-0.1,0.6c-0.3,0.1-0.8,0.2-1.4,0.2c-0.3,0-0.6,0-1,0c-0.3,0-0.6,0-1,0L68,46.7z M67.5,42.3
	c0.1,0.1,0.1,0.2,0.2,0.3c0,0.1,0.1,0.1,0.1,0.2c0,0.1,0,0.2,0,0.3v0.5l-0.4,0.3c-0.3,0.1-0.6,0.2-0.9,0.3c-0.3,0.1-0.6,0.2-0.9,0.2
	c-0.2,0-0.3,0-0.4-0.1l-2.1,0c-0.1,0-0.1,0-0.2-0.1C63,44.2,63,44.1,63,44c0-0.2,0.1-0.4,0.2-0.6l0.4-0.7l1-0.1h1.3L67.5,42.3z
	 M66.1,50c0.1,0,0.1-0.1,0.2-0.1c0,0,0.1-0.1,0.1-0.2c0-0.1,0.1-0.3,0.2-0.5l-0.4-0.7l-0.8-0.4h-0.3l-0.4,0.4v1.1
	c0.2,0.1,0.3,0.2,0.4,0.3c0.1,0.1,0.2,0.2,0.4,0.2c0.1,0,0.2,0,0.3,0C65.9,50.1,66,50.1,66.1,50 M69.5,54.8v0.9l-0.3,0.7l0.2,0.4
	l0.3,0.1l1-0.1c0.2,0,0.3-0.1,0.4-0.2c0.1-0.1,0.2-0.2,0.4-0.2H72v0c0-0.1,0.1-0.2,0.3-0.2c0.1,0,0.3,0,0.4,0c0.2,0,0.3,0.1,0.5,0.1
	c0.2,0.1,0.3,0.1,0.4,0.2c0.1,0.1,0.2,0.1,0.3,0.2v0.2l-0.1,0.6l-1.3,0.1l-0.2,0.1L70.4,58l-0.6,0.2l-1.3,0.2l-1,0.4l-1.6-0.3
	c0-0.1,0.1-0.2,0.1-0.3c0-0.2,0.1-0.3,0.1-0.5c0-0.2,0.1-0.4,0.1-0.6c0-0.2,0.1-0.3,0.1-0.4c0.1-0.1,0.1-0.2,0.1-0.4
	c0-0.1,0-0.2,0-0.3c0,0,0-0.1,0.1-0.3c0-0.1,0.1-0.3,0.2-0.4c0.1-0.2,0.2-0.3,0.2-0.5c0.1-0.2,0.1-0.4,0.2-0.5l0.3-0.6
	c0-0.2,0.2-0.3,0.4-0.3c0.2-0.1,0.4-0.1,0.6-0.2c0.2,0,0.3,0.1,0.4,0.1c0.1,0,0.2,0.1,0.3,0.1h0.2c0,0,0.1,0,0.2-0.1V54.8z
	 M72.1,43.2c0.1-0.1,0.2-0.2,0.4-0.3l0.9,0.7h0.3v2.7l1.1-0.4h0.4h0.1c0.2,0,0.3,0.1,0.5,0.2c0.1,0.1,0.2,0.3,0.3,0.4v0.2L76,47.3
	l-1,0.1c-0.1,0.1-0.3,0.2-0.6,0.2h-0.5h-0.2l-0.1,0.6c0,0.2-0.1,0.3-0.1,0.4c0,0.1-0.1,0.1-0.1,0.2l0.1,0.9v0.1c0,0.1,0,0.3-0.1,0.4
	c0,0.2-0.1,0.3-0.1,0.5v0.1L73.2,52c0,0.1,0,0.1,0,0.2v0.1c0,0.1,0,0.2,0,0.2c0,0.1,0.1,0.2,0.2,0.3l-0.2,0.4H73l-0.9-0.3L72,52.7
	v-5.6l0.1-0.6L72,46.2l-0.2-2.6C71.9,43.4,72,43.3,72.1,43.2"/>
<path class="st1" d="M126.8,43c0.4,0,0.7,0,1,0.1c0.3,0,0.6,0.1,1,0.2c0.1,0.2,0.2,0.4,0.4,0.7c0.1,0.3,0.2,0.5,0.3,0.8l-2.1,3.1
	l0.6,0.2c0.2,0.2,0.4,0.4,0.7,0.5c0.3,0.1,0.6,0.2,0.9,0.4l0.3,0.3l0.3,0.4l0.7,0.4l-0.5,0.7l-0.2,0.2H130l-0.4-0.2
	c-0.2-0.1-0.4-0.2-0.5-0.2c-0.2,0-0.3-0.2-0.4-0.4l-1.4-0.6c-0.1,0-0.3-0.1-0.4-0.1c-0.2,0-0.4-0.1-0.6-0.1c-0.1,0-0.2,0.1-0.2,0.1
	c-0.1,0.1-0.1,0.2-0.2,0.2c-0.1,0.1-0.1,0.2-0.2,0.3c-0.1,0.1-0.2,0.2-0.3,0.3c-0.2,0.1-0.3,0.2-0.4,0.3c-0.1,0.1-0.1,0.3-0.2,0.4
	c-0.1,0.1-0.1,0.3-0.2,0.4c-0.1,0.1-0.1,0.2-0.2,0.3l-0.8,0.7c-0.1,0-0.1,0-0.2,0c0,0-0.1,0-0.1,0c0,0,0,0,0,0c0,0,0,0-0.1,0.1H123
	c-0.2-0.1-0.4-0.2-0.5-0.2c-0.2,0-0.4-0.2-0.7-0.4l-0.9-0.8c0.1-0.1,0.2-0.2,0.3-0.3c0.1-0.1,0.1-0.2,0.2-0.3c0-0.1,0.1-0.2,0.2-0.3
	c0.1-0.1,0.2-0.3,0.3-0.5l0.3-0.5l1.3-1.1l0.6-1V47l0.4-0.3l0-0.2l2.2-3.5H126.8z M132.7,52.9l0.2,0.6l0.1,0.6c0,0.1,0,0.1,0,0.1
	c0,0.1,0.1,0.2,0.2,0.2c0.1,0,0.2,0.1,0.2,0.1l-0.1,0.3c0,0.3-0.1,0.5-0.1,0.7c0,0.2,0,0.3,0,0.4c0,0.1,0,0.3,0,0.4
	c0,0.1,0,0.3-0.1,0.6c0,0.1,0,0.3-0.1,0.5c-0.1,0.2-0.1,0.5-0.1,0.7l-0.2,0.1h-0.4l-0.9-0.2c-0.1,0-0.2-0.1-0.2-0.2
	c0-0.1-0.1-0.2-0.1-0.3c0-0.1,0-0.3-0.1-0.4c0-0.1,0-0.2,0-0.3l0-1.2l-0.2-0.2c-0.1-0.1-0.1-0.2-0.1-0.3c0-0.1,0-0.2,0-0.2
	c0-0.1,0-0.1,0-0.2c0-0.1-0.1-0.1-0.2-0.1l-2,0.2l-0.9,0.2l-0.2-0.1l-0.1-0.5l0.3-0.3c0.1-0.1,0.2-0.2,0.4-0.3
	c0.1-0.1,0.4-0.2,0.7-0.2h0.1c0.2,0,0.4-0.1,0.6-0.2c0.2-0.1,0.5-0.2,0.7-0.2c0.3-0.1,0.5-0.1,0.8-0.2c0.2,0,0.5-0.1,0.7,0H132.7z
	 M131.9,42.9c0.1-0.1,0.3-0.2,0.4-0.2l1.3,0.8l-0.3,3.1c-0.1,0.2-0.1,0.3-0.1,0.4c0,0,0,0.1-0.1,0.2l0.1,0.9c0,0.1,0,0.1,0,0.2
	c0,0.1,0,0.2,0,0.3l0.1,0.6c0,0.1,0,0.2,0,0.4c0,0.2,0,0.4,0,0.5c0,0.2,0,0.4,0.1,0.5c0,0.2,0.1,0.3,0.1,0.4l-0.5,0.8l-1.1-0.5
	l-0.1-0.2v-4.4l0.1-0.6l-0.1-0.4l-0.2-2.6C131.7,43.1,131.7,43,131.9,42.9"/>
<path class="st3" d="M112.8,58.8l-0.1,0.2C112.8,58.9,112.8,58.8,112.8,58.8"/>
<path class="st3" d="M113.5,57.7L113.5,57.7C113.4,57.7,113.4,57.7,113.5,57.7"/>
<path class="st3" d="M114.8,48c0-0.1,0-0.2,0-0.3L114.8,48z"/>
<path class="st3" d="M85.5,59.2C85.5,59.2,85.5,59.2,85.5,59.2C85.5,59.1,85.5,59.2,85.5,59.2"/>
<path class="st3" d="M99.8,35L99.8,35C99.8,34.9,99.8,34.9,99.8,35"/>
<path class="st3" d="M111,39.7L111,39.7C111,39.7,111,39.7,111,39.7L111,39.7z"/>
<path class="st3" d="M111.4,40.1c-0.3-0.1-0.4-0.2-0.5-0.4l-0.1,0.4L111.4,40.1z"/>
<path class="st3" d="M113.1,58.2C113.1,58.3,113.1,58.3,113.1,58.2C113.1,58.3,113.1,58.3,113.1,58.2"/>
<path class="st3" d="M115.1,51.6C115.1,51.5,115.1,51.5,115.1,51.6c0-0.3-0.1-0.1-0.1-0.5c-0.1-0.1,0-0.3,0.1-0.5
	c0.1-0.3,0.1-0.6,0-0.8c0-0.1,0.1,0.1,0.2,0c-0.2-0.7-0.1-0.6-0.4-1.2l0-0.5c-0.1,0.4-0.3-0.1-0.5-0.4c0,0,0,0,0,0.1
	c0,0,0-0.1,0-0.1c0,0,0,0,0,0.1c0,0,0-0.1,0-0.1c0,0-0.1-0.1-0.1-0.1c0-0.1,0-0.2-0.1-0.3c0,0,0.1,0.1,0.2,0.1l0,0.2
	c0.1,0.1,0.3,0.3,0.3,0.2c0,0-0.1-0.1-0.1-0.2c0,0,0.1,0.1,0.1,0c0,0,0-0.1-0.1-0.2l0.1-0.2l-0.1,0l-0.1-0.9
	c-0.1-0.1-0.2-0.3-0.3-0.4c-0.1-0.1-0.2-0.3-0.3-0.4c-0.2-0.3-0.4-0.6-0.6-1c0.2,0.2,0.2,0,0.4-0.1c-0.1,0.3,0.3,0.7,0.5,1.2
	c-0.1-0.3,0-0.2,0.1-0.2l-0.4-0.8c0.1,0,0-0.2,0-0.5c-0.2,0.3-0.4-0.5-0.7-0.8c0.1-0.1,0.2,0,0.4,0.4c0-0.5-0.5-0.5-0.6-0.9
	c0.1,0.1,0.1,0.1,0.1,0.2c-0.2-0.2-0.5-0.7-0.3-0.7l0.1,0.1c-0.1-0.2-0.2-0.4-0.3-0.6c-0.1-0.2-0.3-0.4-0.5-0.6
	c-0.3-0.4-0.6-0.7-0.7-0.6c0,0,0.3-0.1,0.3-0.1c-0.3-0.1-0.6-0.2-0.9-0.3c-0.1-0.1-0.2-0.2-0.3-0.3c0.1-0.2,0.2-0.4,0.6-0.1
	c-0.1-0.1-0.2-0.3-0.5-0.5c0.1,0.1,0,0.4-0.1,0.3c-0.2-0.4-0.1-0.3-0.4-0.8c0.1,0.2-0.2,0.2-0.4,0c0.1,0,0.2-0.2,0.3-0.2
	c-0.2-0.1-0.5-0.2-0.7-0.2c0.2,0.1,0.2-0.2,0.1-0.3c0,0.1-0.5-0.4-0.6-0.5l0.2,0.2c-0.6-0.5-0.9-0.1-1.5-0.5c0.1,0,0.4-0.2,0.1-0.4
	c-0.1,0-0.4,0.1-0.7,0.1c0,0,0,0-0.1,0c-0.2-0.1-0.5-0.3-0.8-0.4c0.4,0,0.9,0,1.2,0c-0.2-0.2,0-0.1-0.4-0.3c-0.1-0.1,0.3,0,0.4,0.1
	l-0.9-0.5c0,0.1-0.2,0-0.4,0c-0.2,0-0.4-0.1-0.4,0c0.4,0.1,0.7,0.2,1.1,0.3c0,0.2-0.8,0.1-1.4-0.1c-0.1-0.1,0.2-0.2,0.3-0.3
	c-0.1,0-0.7-0.1-0.7-0.2l0.3,0c-0.4-0.2-0.7,0-1.1-0.3c-0.2-0.1-0.4-0.3-0.5-0.3c0.1,0.2,0.1,0.4,0.1,0.6c-0.2,0-0.4-0.1-0.5-0.1
	l0-0.1l-0.1,0l0,0.1c-0.2,0-0.4-0.1-0.6-0.1c0-0.1,0.5-0.2,0.3-0.4c0,0-0.2,0.1-0.2,0.1c-0.2-0.1,0.1-0.1-0.3-0.2
	c-0.1,0.2-0.8-0.1-0.2,0.1c-0.4,0-0.4-0.1-0.8-0.1c0.1,0.1-0.1,0.2-0.4,0.3c-0.2,0-0.3,0-0.5,0c0,0,0,0,0,0c-0.2,0-0.4,0-0.5-0.1
	c-0.2,0-0.3,0-0.4,0c-0.3,0-0.6,0-0.9,0c-0.1,0-0.4-0.1-0.3-0.2c-0.1,0-0.2,0.1-0.4,0.1c-0.4-0.1,0.5-0.1,0.1-0.2
	c0,0.1-0.6,0.2-0.9,0.3c0.1,0.1,0.7-0.1,1-0.2c0,0.1-0.1,0.2-0.2,0.2c-0.8,0.1-1.6,0.2-2.3,0.4c-0.5,0.1-1.7,0.5-2.3,0.7
	c-0.1,0.1-0.2,0.1-0.2,0.2c-0.4,0.2-0.8,0.4-1.2,0.6l-0.2,0.1l0.1,0c-0.4,0.2-0.8,0.5-1.1,0.7c0,0,0,0,0,0L89.9,38
	c0,0-0.1,0.1-0.1,0.1c0,0,0-0.1,0-0.1c0,0,0,0.1,0,0.1c-0.2,0.1-0.3,0.3-0.5,0.4c0,0,0,0,0,0c0,0,0,0,0,0c-3.4,2.8-5.5,7-5.6,11.7
	c0,0.3,0,0.6,0,0.9c-0.1,0.2-0.2,0.3-0.3,0.3c0.1,0.1,0.1,0.2,0.1,0.4c0,0.1,0,0.3,0,0.5c0,0.3,0,0.7,0.2,1c0,0.2-0.1-0.1-0.1,0
	c0.1,0.2,0.2,0.4,0.2,0.8l0,0c0.2,0.5,0.2,1,0.3,1.4c0.1,0.2,0.1,0.4,0.2,0.7c0.1,0.2,0.1,0.5,0.3,0.8l0.1-0.1
	c0.1,0.3,0.1,0.3,0.1,0.5c0.3,0.2-0.3-0.7,0-0.5c0,0.2,0.2,0.7,0.4,1.1c0.2,0.4,0.4,0.8,0.4,1c0.2,0.4,0.1-0.2,0.3,0.2l0,0.1l0.1,0
	c0.1,0.2,0.1,0.4,0.1,0.5c0-0.1-0.1-0.1-0.2-0.2c0.1,0.3,0.6,0.8,0.7,0.9L86,59.8c0.7,0.9,1.6,2,2.6,2.6l0-0.1
	c0.7,0.5,0.5,0.5,1.3,1l0,0c0.2,0.1,0.4,0.2,0.6,0.3c-0.2-0.1,0.3,0.3,0,0.2c0.9,0.4,0.4,0.2,1.1,0.3l0.1,0.1c0.2,0,0.3,0,0.7,0.2
	c-0.4-0.1,0.2,0.3-0.2,0.2c0.2,0.2,0.4,0.3,0.6,0.3c0.1,0,0.2,0.1,0.3,0.1c0,0,0,0,0,0c0,0,0,0,0.1,0c0.1,0,0.2,0,0.3,0
	c-0.1,0-0.1,0,0,0c-0.2-0.2,0.4-0.1,0.7,0.1c0.3,0.1,0.4,0.5,1.2,0.7c-0.1,0-0.1,0-0.2,0c0.3,0.1,0.6,0.1,0.9,0.2
	c0.2-0.1,0.5,0.1,0.6-0.1l-0.7-0.1c0.4,0,0.8-0.2,1.5,0.1c-0.1,0-0.3,0.1-0.4,0.1c0.2,0.1,0.4,0,0.6,0.1c-0.1,0.2-0.9-0.1-1.3,0
	c0.2,0.1,0.9,0,0.6,0.2c0.2-0.1,0.4-0.1,0.6,0c0.2,0,0.5,0.1,0.7,0l0,0.1c0.1,0,0.3-0.1,0.4,0L98,66.5c0.4-0.1,0.8,0.2,1.3,0.1
	c-0.9,0-0.2-0.1-0.6-0.2c1-0.2,0.7,0.3,1.7,0.2c-0.2,0-0.5-0.1-0.3-0.1c0.2,0,0.5,0,0.7,0.1c0.8-0.1-0.1-0.1,0.2-0.2
	c0.3,0.1,0.4-0.1,0.7-0.2l0,0.1c0.9-0.1,0.2-0.3,1-0.4l-0.3,0.2l0.4-0.1l-0.1,0.2c0.4-0.2,0.6-0.2,1-0.3c-0.1,0,0-0.2,0.4-0.4
	c0.3,0-0.1,0.2,0.4,0c-0.1,0.1-0.2,0.3-0.5,0.2c0,0-0.1,0.1-0.1,0.2c0.2,0,0.4-0.1,0.6-0.2c0,0,0,0,0,0c0.3-0.3,0.7-0.6,1.2-0.7
	c0,0,0,0,0.1,0c0,0,0,0,0,0c0.1,0,0.2,0,0.2,0c0.2-0.2,0.5-0.3,0.8-0.3c0.1,0,0.2-0.1,0.3-0.1c0.3-0.2,0.5-0.4,0.8-0.6
	c0,0,0.1-0.1,0.1-0.2c0.2-0.2,0.5-0.3,0.7-0.4c0.2-0.1,0.5-0.3,0.7-0.6l0.4-0.1c0.4-0.4-0.5,0.2,0.1-0.5c0.4-0.4,0.3,0,0.5-0.1
	c0.1-0.3,0.4-0.8,0.8-1.1c0,0-0.1,0.1-0.1,0.1c0.2-0.2,0.4-0.3,0.6-0.4c0.2-0.2,0.3-0.5,0.2-0.5l0.2-0.2c-0.1,0.1,0,0.1-0.1,0.1
	c0.5-0.3,0-0.5,0.4-1c0.1-0.1,0.2-0.2,0.2-0.2c0,0,0.1-0.1,0.1-0.1l0.1-0.3c0.1-0.1,0.1-0.1,0.1,0c0.1-0.2,0.2-0.4,0.3-0.6l0,0
	c0-0.1,0-0.4,0.1-0.5c0.1-0.2,0,0.1,0,0.1c0-0.1,0.1-0.3,0.1-0.4c0.1-0.1,0.1,0,0.1,0.1c0,0.1-0.1,0.3-0.2,0.4
	c0.3-0.1,0.3-0.2,0.3-0.4c0-0.2,0-0.4,0.3-0.8l-0.1,0.4c0.3-0.2,0.3-0.5,0.6-0.9c-0.1,0.1-0.6,0.8-0.6,0.3c0.1-0.1,0.2-0.3,0.2-0.6
	c0.1,0,0.2-0.2,0.2-0.5l0.2,0.1c0-0.4,0-0.3-0.1-0.6c0.1-0.4,0.3-0.4,0.4-0.5c0.1-0.6-0.3,0.4-0.2-0.4c0.1-0.5,0.2-0.9,0.1-1.5
	c0.1-0.4,0.1,0.1,0.2-0.1L115.1,51.6z M114.1,56.3c-0.1-0.2,0-0.3,0.1-0.4C114.2,56,114.2,56.3,114.1,56.3"/>
<path class="st3" d="M114.5,47c0-0.1-0.1-0.2-0.1-0.4C114.5,46.7,114.5,46.9,114.5,47"/>
<path class="st3" d="M100.6,66.5c0,0-0.1,0-0.1,0C100.5,66.5,100.5,66.5,100.6,66.5"/>
<path class="st3" d="M114.8,47.7C114.8,47.7,114.8,47.7,114.8,47.7C114.8,47.8,114.8,47.8,114.8,47.7"/>
<path class="st3" d="M108.1,63.8L108.1,63.8C108.1,63.9,108.1,63.9,108.1,63.8L108.1,63.8z"/>
<path class="st3" d="M102.1,34.7c0.1,0,0.2,0.1,0.2,0.1C102.3,34.8,102.2,34.8,102.1,34.7"/>
<path class="st3" d="M107.8,37c0,0-0.1,0-0.2-0.1C107.7,37,107.7,37,107.8,37"/>
<path class="st4" d="M111,43.9c-1.5,3.7-4.8,5.2-8.5,5.7c-1,0.1-2,0.4-3,0.7c-1-0.4-2.1-0.6-3-0.7c-3.7-0.5-7-2-8.5-5.7
	c-0.8,4.3,3.4,7.7,7.4,8.2c0.2,0,0.4,0.1,0.7,0.1c-0.3,0.2-0.5,0.5-0.7,0.7c-0.8,0.2-1.7,0.5-2.5,1c-0.3,0.2-0.5,0.3-0.8,0.5
	c-0.3,0.3-0.6,0.7-0.6,1c-0.1,0.3-0.1,0.6,0,0.9c0.2,0.6,0.9,1.2,1.6,1.6c1.5,0.8,3.1,1.1,4.9,1.3c0.1,0,0.5,0,0.5,0
	c1.4-0.3,1.8-0.7,1.8-1c0.1,0,0.2,0,0.4,0c0.9,0,2.7-0.1,4.6-1.1c0.5-0.3,1.1-0.6,1.5-1c0.2-0.2,0.4-0.5,0.4-0.7
	c0.1-0.2,0.2-0.4,0.1-0.7c0-0.2-0.1-0.5-0.2-0.8c-0.2-0.3-0.5-0.6-0.9-0.8c-0.4-0.3-0.9-0.4-1.4-0.6c-0.5-0.1-0.9-0.2-1.4-0.3
	c-0.1,0-0.1,0-0.2,0c0.2,0,0.3,0,0.5-0.1C107.5,51.7,111.7,48.2,111,43.9 M103.3,54c1.6,0.6,0.4,1.9,0.4,1.9l-0.2,0.1l-0.3,0.3
	c0,0-0.8,0.5-1.8,0.9c-0.1,0-0.2,0.1-0.3,0.1c-0.4,0.2-0.8,0.3-1.1,0.4c0,0,0,0,0,0c-0.2,0-0.4,0.1-0.5,0.1l-1-0.9
	c0,0-3.9-0.3-3.2-1.4C96,54.4,101.8,53.4,103.3,54"/>
</svg>
